<?xml version="1.0" encoding="UTF-8"?>
<svg id="Layer_1" data-name="Layer 1" xmlns="http://www.w3.org/2000/svg" viewBox="0 0 64 64">
  <defs>
    <style>
      .cls-1 {
        fill: #010101;
      }

      .cls-2 {
        fill: #fac97f;
      }

      .cls-3 {
        fill: #f95209;
      }

      .cls-4 {
        fill: #f8540a;
      }

      .cls-5 {
        fill: #020202;
      }

      .cls-6 {
        fill: #f58c98;
      }

      .cls-7 {
        fill: #f26f7e;
      }

      .cls-8 {
        fill: #e9001b;
      }

      .cls-9 {
        fill: #f69e1a;
      }

      .cls-10 {
        fill: #fad398;
      }

      .cls-11 {
        fill: #fad49a;
      }

      .cls-12 {
        fill: #fe5f01;
      }

      .cls-13 {
        fill: #f65a0f;
      }
    </style>
  </defs>
  <path class="cls-8" d="M31.9,14.6c.19.07.22.2.09.36-8.06,6.64-8.3,18.78-.3,25.6l.21.47c-.33.4-.84.72-1.28,1-10.01,6.2-22.94.63-25.31-10.82-.14-.67-.13-1.37-.37-2.01v-.32c.04-.22.08-.43.11-.63-.03-.27-.06-.55-.11-.85.02-.28-.03-.57,0-.85,0-1.82.34-3.41,1.02-5.08,3.57-8.77,13.81-12.95,22.49-9.13.75.33,3,1.42,3.34,2.01.05.08.08.17.11.25Z"/>
  <path class="cls-9" d="M59.07,26.76v.11c-.04.22-.08.43-.11.63.08.24.08.49,0,.74.03.2.07.41.11.63v.32c-.24.64-.23,1.35-.37,2.01-2.54,12.09-16.83,17.57-26.59,9.83l.23-.48c3.13-2.7,5.16-6.43,5.77-10.45l.23-.17c-.08-.2-.09-.44,0-.63-.29-.1-.29-.22,0-.32.1-.73.1-1.49,0-2.22-.29-.1-.29-.22,0-.32-.09-.2-.08-.43,0-.63l-.25-.34c-.59-4.06-2.81-7.84-5.94-10.47l-.16-.39c.04-.16.13-.29.24-.41.49-.52,2.55-1.56,3.3-1.89,10.72-4.66,23.04,2.77,23.52,14.46Z"/>
  <path class="cls-7" d="M5.05,28.24c-.03.09-.07.09-.11,0v-.85c.19.17.11.58.11.85Z"/>
  <path class="cls-2" d="M59.07,28.24c-.03.09-.07.09-.11,0,0-.25,0-.49,0-.74.03-.09.07-.09.11,0v.74Z"/>
  <path class="cls-10" d="M59.07,27.5h-.11c0-.2-.07-.52.11-.63v.63Z"/>
  <path class="cls-6" d="M4.94,28.88v-.63h.11c0,.2.07.52-.11.63Z"/>
  <path class="cls-11" d="M59.07,28.88c-.18-.12-.1-.43-.11-.63h.11v.63Z"/>
  <path class="cls-12" d="M38.35,25.81c-.08.2-.09.43,0,.63,0,.11,0,.21,0,.32.1.74.1,1.48,0,2.22,0,.11,0,.21,0,.32-.09.2-.08.43,0,.63-.07.8-.37,1.93-.61,2.72-.98,3.35-2.99,6.16-5.63,8.38h-.21c-2-1.78-3.75-3.83-4.85-6.31-3.15-7.13-1.13-14.66,4.56-19.72.14-.12.29-.16.28-.4.02.02.08-.02.11,0,3.26,2.49,5.96,7.09,6.34,11.21Z"/>
  <path d="M14.77,52.88h-.95v-2.91c0-.41-.63-.69-1-.7-.36,0-1.11.32-1.11.7v2.91h-.95v-3.01c0-.22-.46-.54-.69-.57-2.14-.34-1.24,2.37-1.31,3.59h-.95v-4.44c.16.03.81-.04.85,0,.06.06-.13.65.16.53.4-.17.62-.67,1.34-.61.52.04,1.31.72,1.39.71.04,0,.45-.4.66-.51.62-.31,1.46-.28,2,.2.14.13.58.86.58,1.01v3.12Z"/>
  <path class="cls-1" d="M55.47,46.75v2.22c-2-1.75-4.45.45-3.44,2.75.6,1.35,2.27,1.73,3.38.74-.02.69.45.36,1,.42v-6.13h-.95ZM53.18,51.79c-1.22-1.22.5-3.4,1.86-2.23,1.47,1.26-.48,3.61-1.86,2.23Z"/>
  <path d="M46.49,48.97c-1.13-1.04-2.79-.76-3.4.67-.97,2.26,1.37,4.42,3.4,2.82-.15.69.44.36.95.42v-4.44c-.62.06-1.1-.28-.95.53ZM45.67,52.11c-2.1.54-2.36-2.47-.9-2.81,2.05-.47,2.37,2.43.9,2.81Z"/>
  <path d="M19.32,48.97c-.28-.04-.43-.28-.7-.41-2.42-1.13-4.11,2.39-2.1,4,.88.7,1.93.52,2.8-.1-.14.66.34.37.85.42v-4.44c-.61.04-.97-.25-.85.53ZM17.67,52.14c-1.35-.17-1.44-2.55-.08-2.83,2.24-.46,2.36,3.13.08,2.83Z"/>
  <path class="cls-1" d="M34.18,49.91c-.21-.76-.75-1.4-1.58-1.48-3.61-.34-3.37,5.12.07,4.63.51-.07.87-.37,1.35-.5-.28-1.35-.86-.35-1.65-.33-.66.02-1.24-.5-1.31-1.15h3.12c.27,0,.05-.99,0-1.17ZM31.05,50.34c0-1.47,2.22-1.44,2.33,0h-2.33Z"/>
  <path class="cls-1" d="M25.03,48.86c-.13.1-.4.7-.44.73-.09.06-1.31-.58-1.99-.25-.36.18-.41.55-.04.77.72.41,2.43-.13,2.51,1.38.1,1.89-2.71,1.82-3.8.97-.06-.08.3-.64.33-.64.2-.02,1.03.41,1.47.41s1.49-.33.84-.81c-.69-.51-2.58-.05-2.58-1.65,0-1.76,2.66-1.57,3.7-.9Z"/>
  <path class="cls-1" d="M26.61,49.39s-.69.03-.85,0c-.29-1.36.7-.81.85-.95.05-.04-.03-1.07,0-1.27h1.06s0,1.27,0,1.27h1.48v.95h-1.48v2.38c0,.41,1.22.47,1.48.05l.32,1.06c-.83.18-1.98.52-2.59-.32-.05-.07-.27-.54-.27-.58,0-.36.09-2.5,0-2.59Z"/>
  <path class="cls-1" d="M41.94,49.71c-.34-.06-.54-.36-.9-.42-2.08-.3-2.29,3.05-.1,2.85.73-.07,1.09-.85,1.31.52-1.38.68-3.16.4-3.74-1.16-.93-2.48,1.95-4,3.86-2.59l-.42.79Z"/>
  <path class="cls-5" d="M35.28,48.44c.62.06,1.1-.28.95.53.64-.35,1.12-.83,1.9-.53-.09,1.24-.49.69-1.3.87-.22.05-.61.47-.61.66v2.91h-.95v-4.44Z"/>
  <path class="cls-1" d="M48.71,48.44c.66.04.89-.25.9.53.59-.31,1.15-.9,1.86-.47-.01,1.14-.61.63-1.28.83-1.15.35-.32,2.68-.52,3.55h-.95v-4.44Z"/>
  <path class="cls-13" d="M38.35,28.98c.03-.71.03-1.51,0-2.22.18.64.18,1.58,0,2.22Z"/>
  <path class="cls-3" d="M38.35,26.45c-.17-.1-.17-.53,0-.63.02.21-.01.42,0,.63Z"/>
  <path class="cls-4" d="M38.35,29.94c-.17-.1-.17-.53,0-.63-.01.21.02.43,0,.63Z"/>
</svg>