<?xml version="1.0" encoding="UTF-8"?>
<svg id="Layer_1" data-name="Layer 1" xmlns="http://www.w3.org/2000/svg" viewBox="0 0 64 64">
  <defs>
    <style>
      .cls-1 {
        fill: #005bab;
      }

      .cls-2 {
        fill: #f5ab1d;
      }

      .cls-3 {
        fill: #d7b059;
      }
    </style>
  </defs>
  <path class="cls-1" d="M45.49,23.27l-.64,3.96c-1.61-.62-3.54-1.15-5.27-.73-1.16.28-2.14,1.24-1.1,2.32,1.82,1.89,5.81,2.2,6.24,5.78.76,6.43-7.57,7.81-12.28,6.4-.58-.17-1.28-.21-1.26-.91.04-1.08.6-2.52.65-3.65,1.55,1.12,6.45,2,7.65.3,1.41-2.01-2.96-3.45-4.19-4.34-3.15-2.3-2.81-6.38.38-8.41,2.92-1.85,6.65-1.82,9.83-.71Z"/>
  <path class="cls-1" d="M14.17,32.47l.64,2.94,4.67-12.65h4.92l-7.63,18.54-4.88-.02-4.11-15.83c.1-.01.2-.02.3-.01,1.41.12,5.87,4.72,5.83,6.53.15.1.23.27.26.51Z"/>
  <polygon class="cls-1" points="23.37 41.29 26.51 22.76 30.98 22.76 28.04 41.29 23.37 41.29"/>
  <g>
    <path class="cls-2" d="M14.04,31.83c.03.16.04.2-.13.13-1.36-2.93-3.42-4.87-6.14-6.52-1.62-.99-3.34-1.88-5.24-2.17l.21-.36c2.53.14,5.42-.27,7.9-.02,1.35.14,1.76.81,2.07,2.02.58,2.26.9,4.63,1.32,6.93Z"/>
    <path class="cls-3" d="M14.17,32.47c-.16-.13-.18-.34-.26-.51l.13-.13c.03.15.24.38.13.64Z"/>
  </g>
  <path class="cls-1" d="M57.55,22.75c-1.52.17-4.5-.46-5.6.78-.54.61-.73,1.72-1.15,2.42-2.05,5.14-4.39,10.19-6.34,15.34h4.8c.55-.81.81-1.87,1.1-2.8l6.13.06c.26.89.29,1.93.69,2.74h4.28l-3.91-18.54ZM51.88,34.77l2.3-6.77,1.53,6.77h-3.83Z"/>
</svg>